<svg xmlns="http://www.w3.org/2000/svg" viewBox="0 0 120 120" role="img" aria-labelledby="title desc">
  <title id="title">Waterfall Lodge shield mark</title>
  <desc id="desc">A simplified shield emblem with waterfall motif for header use.</desc>
  <rect width="120" height="120" fill="none"/>
  <path d="M60 12c15 0 29 5 29 5v33c0 22-12 41-29 58-17-17-29-36-29-58V17s14-5 29-5z" fill="#f7f2e7" stroke="#1b4f7a" stroke-width="4" stroke-linejoin="round"/>
  <path d="M39 28h42v8H39z" fill="#1b4f7a"/>
  <path d="M49 33c0 8-2 15-6 21m14-21c0 10-1 18-4 28m13-28c0 9-1 17-3 24m12-24c0 7-1 13-2 19m11-19c0 6 0 11-1 15" fill="none" stroke="#2c83b7" stroke-width="4" stroke-linecap="round"/>
  <path d="M42 59c6 4 13 5 18 5s12-1 18-5" fill="none" stroke="#2c83b7" stroke-width="4" stroke-linecap="round"/>
  <path d="M36 73c7 3 15 5 24 5s17-2 24-5" fill="none" stroke="#3d6f9c" stroke-width="4" stroke-linecap="round"/>
  <circle cx="60" cy="82" r="8" fill="#2c83b7" opacity="0.9"/>
</svg>
